<?xml version="1.0"?>
<svg width="112" height="29" xmlns="http://www.w3.org/2000/svg" xmlns:svg="http://www.w3.org/2000/svg">
 <g class="layer">
  <title>Layer 1</title>
  <path clip-rule="evenodd" d="m24.27,5.33c1.58,2.01 0.85,5.85 0.13,7.69c0,0 0.01,0 0.02,0l-0.02,0l-1.75,-0.11c0,0 0,-0.01 0,-0.01c0.34,-3.97 -0.05,-5.55 -0.44,-5.82c-4.58,3.31 -8.67,2.26 -9.94,1.93c-0.34,-0.09 -0.48,-0.12 -0.35,0c0.37,0.37 1.21,0.82 1.82,1.14l0,0l0,0c0.13,0.07 0.26,0.13 0.36,0.19c-4.97,0.06 -6.97,-2.34 -7.56,-3.04c-0.06,-0.07 -0.11,-0.13 -0.14,-0.16c-0.29,-0.29 -1.9,-1.27 -2.41,0.6c-0.49,1.81 -0.18,3.94 -0.01,5.06c0.01,0.1 0.01,0.1 0.01,0.13l-1.61,0.09l-0.01,0c-2.15,-4.96 -0.53,-7.75 0.93,-8.8c0,-2.44 2.97,-4.81 6.75,-3.96c4.83,1.38 6.3,0.92 8.03,0.39c0.69,-0.22 1.43,-0.45 2.46,-0.58c4.68,-0.58 6.26,2.5 6.46,4.09c-0.79,-0.46 -2.14,0.57 -2.73,1.17zm-11.93,-3.74c-1.22,-0.43 -4.35,-0.87 -5.99,0.82c-0.37,0.38 -0.79,1.08 -0.79,1.08c0,0 -0.73,1.33 -1.3,0.76c-0.57,-0.57 0.76,-2.28 1.8,-2.79c1.05,-0.51 3.65,-1.39 6.28,0.13z" fill="#754FFE" fill-rule="evenodd" id="svg_1"/>
  <path d="m10.08,13.5l-6.97,0c-0.88,0 -1.59,0.71 -1.59,1.58l0,3.24c0,0.87 0.71,1.58 1.59,1.58l6.97,0c0.87,0 1.58,-0.71 1.58,-1.58l0,-3.24c0,-0.87 -0.71,-1.58 -1.58,-1.58z" id="svg_2" stroke="#754FFE" stroke-width="1.27"/>
  <path d="m0.82,14.61l-0.44,0c-0.19,0 -0.35,0.16 -0.35,0.35l0,1.01c0,0.19 0.16,0.35 0.35,0.35l0.44,0c0.2,0 0.35,-0.16 0.35,-0.35l0,-1.01c0,-0.19 -0.15,-0.35 -0.35,-0.35z" fill="#754FFE" id="svg_3" stroke="#754FFE" stroke-width="0.06"/>
  <path d="m16.73,13.5l6.97,0c0.88,0 1.59,0.71 1.59,1.58l0,3.24c0,0.87 -0.71,1.58 -1.59,1.58l-6.97,0c-0.87,0 -1.58,-0.71 -1.58,-1.58l0,-3.24c0,-0.87 0.71,-1.58 1.58,-1.58z" id="svg_4" stroke="#754FFE" stroke-width="1.27"/>
  <path d="m25.99,14.61l0.44,0c0.19,0 0.35,0.16 0.35,0.35l0,1.01c0,0.19 -0.16,0.35 -0.35,0.35l-0.44,0c-0.2,0 -0.35,-0.16 -0.35,-0.35l0,-1.01c0,-0.19 0.15,-0.35 0.35,-0.35z" fill="#754FFE" id="svg_5" stroke="#754FFE" stroke-width="0.06"/>
  <path d="m12.3,15.56l2.21,0c0.2,0 0.35,0.16 0.35,0.35l0,1.01c0,0.2 -0.15,0.35 -0.35,0.35l-2.21,0c-0.2,0 -0.35,-0.15 -0.35,-0.35l0,-1.01c0,-0.19 0.15,-0.35 0.35,-0.35z" fill="#754FFE" id="svg_6" stroke="#754FFE" stroke-width="0.06"/>
  <path d="m9.93,16.39c0,0.32 -0.17,0.57 -0.38,0.57c-0.21,0 -0.38,-0.25 -0.38,-0.57c0,-0.31 0.17,-0.57 0.38,-0.57c0.21,0 0.38,0.26 0.38,0.57z" fill="#754FFE" id="svg_7"/>
  <path d="m16.97,16.39c0,0.32 0.17,0.57 0.38,0.57c0.21,0 0.38,-0.25 0.38,-0.57c0,-0.31 -0.17,-0.57 -0.38,-0.57c-0.21,0 -0.38,0.26 -0.38,0.57z" fill="#754FFE" id="svg_8"/>
  <path d="m14.28,20.1c-0.64,0.51 -1.49,0.26 -1.72,0c0.07,0.32 0.31,0.76 0.89,0.76c0.58,0 0.79,-0.5 0.83,-0.76z" fill="#754FFE" id="svg_9"/>
  <path clip-rule="evenodd" d="m12.13,22.41c0.03,-0.12 0.15,-0.19 0.27,-0.17l2.23,0.49c0.12,0.03 0.2,0.15 0.17,0.27c-0.02,0.12 -0.14,0.19 -0.26,0.17l-2.24,-0.49c-0.12,-0.03 -0.2,-0.15 -0.17,-0.27z" fill="#754FFE" fill-rule="evenodd" id="svg_10"/>
  <path d="m13.42,27.68c-4.41,0.05 -7.65,-4.02 -8.71,-6.06c-0.16,-0.3 -0.29,-0.35 -0.38,-0.28c-0.16,0.1 -0.05,0.3 0,0.41c0.53,1.24 1.25,2.29 1.55,2.66c-1.04,1.73 -1.39,3.45 -1.43,4.09c1.73,-1.7 3.47,-1.62 4.12,-1.36c5.14,2.66 7.99,0.79 9.6,0c1.3,-0.64 3.31,0.6 4.16,1.3c-0.11,-1.58 -0.96,-3.3 -1.37,-3.97c0.67,-0.88 1.21,-1.96 1.49,-2.5c0.23,-0.43 0.16,-0.6 0.1,-0.63c-0.15,-0.08 -0.34,0.16 -0.41,0.28c-0.48,0.79 -3.21,5.99 -8.72,6.06z" fill="#754FFE" id="svg_11"/>
  <text fill="#000000" font-family="Sans-serif" font-size="24" font-weight="bold" id="svg_20" stroke-width="0" text-anchor="middle" transform="matrix(1.08961 0 0 1.10942 1.8687 -3.66706)" x="62.53" xml:space="preserve" y="24.66">Books</text>
 </g>
</svg>